<?xml version="1.0" encoding="UTF-8" standalone="no"?>
<svg
   xmlns:dc="http://purl.org/dc/elements/1.1/"
   xmlns:cc="http://creativecommons.org/ns#"
   xmlns:rdf="http://www.w3.org/1999/02/22-rdf-syntax-ns#"
   xmlns:svg="http://www.w3.org/2000/svg"
   xmlns="http://www.w3.org/2000/svg"
   xmlns:xlink="http://www.w3.org/1999/xlink"
   id="svg8"
   version="1.1"
   viewBox="0 0 115.01546 115.01546"
   height="115.01546mm"
   width="115.01546mm">
  <defs
     id="defs2">
    <linearGradient
       id="linearGradient877">
      <stop
         id="stop873"
         offset="0"
         style="stop-color:#ffee00;stop-opacity:1" />
      <stop
         id="stop875"
         offset="1"
         style="stop-color:#ebc72c;stop-opacity:1" />
    </linearGradient>
    <radialGradient
       r="57.507732"
       fy="156.70401"
       fx="260.7482"
       cy="156.70401"
       cx="260.7482"
       gradientTransform="translate(4.3666667e-6,-0.52916533)"
       gradientUnits="userSpaceOnUse"
       id="radialGradient4640"
       xlink:href="#linearGradient877" />
  </defs>
  <metadata
     id="metadata5">
    <rdf:RDF>
      <cc:Work
         rdf:about="">
        <dc:format>image/svg+xml</dc:format>
        <dc:type
           rdf:resource="http://purl.org/dc/dcmitype/StillImage" />
        <dc:title></dc:title>
      </cc:Work>
    </rdf:RDF>
  </metadata>
  <g
     transform="translate(-203.24047,-98.667118)"
     id="layer1">
    <path
       id="path925"
       d="m 260.74807,98.667118 a 57.507732,57.507732 0 0 0 -57.5076,57.507602 57.507732,57.507732 0 0 0 0.1881,4.43177 l 1.01183,-1.34203 c 2.0587,-2.72638 6.52556,-9.51256 7.79797,-11.84683 1.78222,-3.26953 2.50898,-5.22171 3.09697,-8.32352 1.25336,-6.61185 4.31256,-12.21118 9.35757,-17.1266 3.42085,-3.33298 6.98325,-5.51629 11.10785,-6.80786 2.96497,-0.92844 4.5568,-1.08942 7.1422,-0.72243 1.97214,0.27995 2.36858,0.26329 3.43286,-0.14315 1.36329,-0.52066 3.56781,-0.42179 4.78214,0.21446 0.648,0.33952 0.89397,0.32175 2.34094,-0.16898 1.19273,-0.40451 2.01184,-0.51907 4.44004,-0.53227 0.34689,-0.002 0.72682,-0.002 1.14515,0 3.51838,0.0142 4.23898,0.0974 6.35,0.73019 3.22316,0.96627 6.65988,2.7116 9.51932,4.83485 1.30665,0.97024 3.01368,2.05624 3.79356,2.41329 1.4872,0.68085 1.41872,0.67924 5.94537,0.16639 1.49368,-0.16923 1.61116,-0.13309 4.7625,1.46348 2.80908,1.42318 3.61523,1.70342 6.17224,2.14767 5.27018,0.91562 8.6482,2.24876 10.8567,4.2845 1.44986,1.33681 1.77728,1.90028 1.45986,2.51509 -0.13149,0.25466 -0.31773,0.93927 -0.41393,1.52135 l -0.17467,1.05834 0.76895,-0.90951 0.76895,-0.9095 0.33124,1.43867 c 0.1823,0.79123 0.39007,2.89719 0.46147,4.67982 0.11073,2.76265 0.0712,3.24114 -0.26717,3.24114 -0.41645,0 -2.53643,-1.04918 -5.5671,-2.75487 -2.45195,-1.37996 -3.90207,-1.46985 -9.04854,-0.56276 -3.47853,0.61312 -5.17787,0.73535 -13.75833,0.99012 -12.34813,0.36662 -13.97959,0.35125 -17.06563,-0.16226 -3.63955,-0.60563 -5.5728,-0.55978 -6.48022,0.154 -1.55001,1.21923 -2.27897,4.67642 -1.25316,5.94279 0.67218,0.82982 1.21836,1.03903 4.37648,1.67638 5.16029,1.04141 6.99911,1.88049 11.35693,5.1816 3.71827,2.81664 7.24811,4.57077 13.8281,6.87193 7.19492,2.51622 9.06051,3.59815 13.15785,7.63054 3.20072,3.14999 4.40326,5.19845 3.04787,5.19245 -0.80254,-0.003 -3.17409,-1.13035 -4.66844,-2.21847 -3.10015,-2.2574 -4.43783,-2.52336 -12.59562,-2.50476 -9.25145,0.0211 -13.74838,-0.62666 -17.85937,-2.57142 -1.09138,-0.51631 -3.77032,-1.93659 -5.95313,-3.15639 -5.37073,-3.00133 -6.89671,-3.68182 -10.67273,-4.75837 -4.04477,-1.15319 -4.48044,-1.38191 -6.48333,-3.40806 -3.61792,-3.65994 -5.46657,-8.8652 -5.1325,-14.45286 l 0.13488,-2.24896 -0.40101,1.19062 c -0.26332,0.7822 -0.40325,2.2344 -0.40825,4.23334 -0.006,2.5556 0.0991,3.36727 0.66043,5.071 1.08487,3.29253 2.40762,5.3851 5.09736,8.06308 2.1037,2.09452 2.7984,2.59937 5.18521,3.77031 1.51571,0.74358 2.93503,1.36026 3.15433,1.37046 0.94825,0.0442 -0.75288,0.47476 -1.94406,0.49196 -3.93069,0.0569 -8.39633,-2.32892 -12.5274,-6.69313 -3.65765,-3.86404 -5.92416,-7.83425 -7.07813,-12.39925 -0.53292,-2.10823 -0.61646,-2.27393 -0.76791,-1.5167 -0.34734,1.73671 -0.17126,5.45683 0.3576,7.55458 1.48612,5.89484 5.38283,10.65865 10.98486,13.42864 1.91552,0.94715 6.05598,2.2903 7.06004,2.2903 0.77517,0 0.52523,0.3585 -1.3746,1.97197 -2.00743,1.70487 -4.95976,3.25032 -6.6306,3.4711 -1.10272,0.14571 -1.32018,0.059 -3.55585,-1.42678 -6.48549,-4.30989 -10.98132,-10.99235 -12.68812,-18.86035 l -0.3669,-1.6924 -0.0202,2.11666 c -0.0367,3.89017 0.89812,8.04632 2.73471,12.16153 1.65511,3.70856 6.06493,9.30158 9.47539,12.01736 l 1.45625,1.15962 -0.89866,2.22932 c -0.89904,2.2296 -2.20541,7.09499 -2.20607,8.21707 -5.2e-4,0.85718 -0.3149,0.75151 -2.03708,-0.68523 -7.14327,-5.9593 -11.90432,-15.07301 -13.69064,-26.20719 -0.21924,-1.36657 -0.46093,-2.54711 -0.53743,-2.62361 -0.0765,-0.0765 -0.13794,1.33918 -0.13695,3.14606 0.006,9.71044 2.37999,18.64766 6.75153,25.42119 1.45699,2.25753 5.17188,6.04565 7.27294,7.4166 l 1.45883,0.9524 0.6041,6.17843 c 0.33214,3.39832 0.67597,6.7015 0.76377,7.34012 l 0.10749,0.86507 a 57.507732,57.507732 0 0 0 26.11055,6.33501 57.507732,57.507732 0 0 0 57.50812,-57.50812 57.507732,57.507732 0 0 0 -57.50812,-57.507602 z m 4.07159,22.106662 c -1.22631,-0.0221 -2.44685,0.0691 -3.23443,0.28112 -2.23266,0.60119 -4.16102,1.86602 -5.31389,3.48506 -0.55975,0.7861 -0.54122,0.781 1.02009,-0.28474 3.68162,-2.51304 7.80384,-2.95002 11.37037,-1.20509 0.77142,0.37742 1.4025,0.77947 1.4025,0.89297 0,0.1135 -0.6215,0.045 -1.3808,-0.15193 -3.20238,-0.83069 -6.92936,-0.23247 -8.53074,1.36891 -2.17189,2.1719 -1.12392,5.03354 2.2903,6.25491 1.91278,0.68427 5.32504,0.54118 7.29206,-0.30592 5.17131,-2.227 4.18059,-8.20464 -1.64693,-9.93686 -0.81029,-0.24086 -2.04224,-0.37633 -3.26853,-0.39843 z m -18.15549,0.28474 c -0.53766,0.007 -1.06917,0.0816 -1.52962,0.23358 -2.7026,0.89193 -3.49125,4.1536 -1.65674,6.85332 0.71499,1.0522 2.33995,2.16325 3.16673,2.16525 0.43754,0.001 0.39086,-0.0941 -0.27905,-0.56999 -2.02274,-1.43699 -2.92533,-3.86537 -2.09083,-5.62395 0.72809,-1.53431 2.48513,-2.19517 4.72116,-1.7756 l 1.28829,0.24184 -0.67593,-0.67644 c -0.54885,-0.54885 -1.76112,-0.86311 -2.94401,-0.84801 z m 18.14412,2.9037 c 0.66635,0 0.73869,0.10259 0.88832,1.25677 0.34756,2.68054 0.31385,2.66064 1.47071,0.87075 1.00468,-1.55443 1.07474,-1.60774 1.61489,-1.22939 0.84518,0.592 1.5426,1.78385 1.5446,2.6386 10e-4,0.52621 -0.30407,1.06474 -0.99632,1.757 -1.51882,1.51881 -3.80167,1.96989 -6.01307,1.18804 -1.17473,-0.41534 -2.41653,-1.63746 -2.6634,-2.62103 -0.28217,-1.12427 0.57469,-2.43858 2.07842,-3.18792 0.74255,-0.37002 1.67677,-0.67282 2.07585,-0.67282 z m 14.95205,2.61328 c -0.40263,0.004 -0.21457,0.47824 0.63511,1.1932 1.42388,1.19812 3.05983,1.49036 9.90947,1.77044 3.4925,0.1428 6.76674,0.36305 7.27604,0.48937 1.11477,0.27646 1.72574,0.33411 1.53634,0.1447 -0.0766,-0.0766 -0.7809,-0.36329 -1.56528,-0.63665 -1.03394,-0.36033 -2.87411,-0.58223 -6.69003,-0.80719 -5.4533,-0.32148 -8.1694,-0.81343 -10.19317,-1.84588 -0.42037,-0.2145 -0.72545,-0.30999 -0.90848,-0.30799 z m 21.07469,5.36349 c -0.0504,6e-4 -0.0988,0.004 -0.1447,0.0109 -0.48009,0.0706 -0.30047,0.34941 1.27486,1.97921 1.00835,1.04325 1.86851,1.90643 1.91151,1.91823 0.043,0.0118 0,-0.4253 -0.0956,-0.971 h -5.2e-4 c -0.0957,-0.5457 -0.34029,-1.25743 -0.54363,-1.58182 -0.43558,-0.69496 -1.64675,-1.36347 -2.40192,-1.35547 z m -49.85742,3.69073 v 5.2e-4 c -0.2775,0.004 -0.57061,0.0114 -0.88935,0.0222 -2.45825,0.0836 -3.14419,0.20743 -4.41369,0.79634 -5.15084,2.38941 -3.7424,8.14358 2.85409,11.6613 2.39494,1.27713 2.66683,1.24506 0.68316,-0.0796 -4.3632,-2.91364 -5.51507,-6.74977 -2.79414,-9.30383 1.99947,-1.87685 4.6834,-2.13391 12.15895,-1.1653 4.58496,0.59409 12.11578,0.96399 11.72796,0.57619 -0.0617,-0.0616 -1.89701,-0.23831 -4.07882,-0.39274 -2.52659,-0.17883 -5.64781,-0.62747 -8.59689,-1.2361 -3.5496,-0.73257 -4.70878,-0.90542 -6.65127,-0.87902 z m 48.2818,3.67833 h 1.27745 c 1.26755,0 1.27745,0.007 1.26555,0.8599 -0.0142,1.02042 -1.20251,3.44638 -1.3932,2.84427 -0.0691,-0.21828 -0.35611,-1.14101 -0.63768,-2.05052 z m -1.08934,0.0274 c 0.0608,-0.003 0.11366,-0.003 0.15969,0 0.30684,0.0216 0.30792,0.19949 0.30592,0.67076 -0.004,0.9967 -1.2009,3.54843 -1.40973,3.00653 -0.68495,-1.77764 -1.20984,-3.28511 -1.16014,-3.33261 0.0329,-0.0314 0.62552,-0.14153 1.31672,-0.24443 0.35178,-0.0524 0.60518,-0.0902 0.78754,-0.10025 z m -2.63084,0.45889 -0.17519,0.8816 c -0.22714,1.14571 -0.98401,3.13055 -1.19372,3.13055 -0.0899,0 -0.43751,-0.7867 -0.77308,-1.74821 -0.33557,-0.96152 -0.57365,-1.77948 -0.52865,-1.81798 0.045,-0.0385 0.6643,-0.15445 1.37614,-0.25786 z m 7.0099,0.0682 c 0.33106,0.006 2.17558,1.13725 2.17558,1.36012 0,0.44586 -0.75249,1.66604 -1.40043,2.27118 l -0.65681,0.6134 -0.11627,-2.06861 c -0.064,-1.13774 -0.0851,-2.11052 -0.047,-2.16162 0.008,-0.0105 0.0229,-0.0148 0.0449,-0.0145 z m -10.46757,0.43563 -0.19275,0.89452 c -0.27464,1.27181 -0.94159,2.87838 -1.19477,2.87838 -0.11813,0 -0.29813,-0.38747 -0.39997,-0.86041 -0.10184,-0.47294 -0.35851,-1.19756 -0.56999,-1.61128 -0.21149,-0.4137 -0.34579,-0.79 -0.29869,-0.8356 0.0471,-0.0456 0.66403,-0.16865 1.37097,-0.27389 z m -4.49482,0.41031 c 0.22606,-0.005 0.39654,0.0105 0.45734,0.0481 0.37565,0.23216 -0.57584,3.31453 -1.0232,3.31453 -0.0858,0 -0.40193,-0.70238 -0.70279,-1.56115 l -0.54726,-1.56166 1.0263,-0.16381 c 0.28221,-0.0451 0.56355,-0.071 0.78961,-0.076 z m -6.93911,0.18707 c 1.50096,0 1.53574,0.0747 0.90124,1.93683 -0.42566,1.2492 -0.75755,1.68511 -0.99322,1.3038 -0.12874,-0.20831 -1.23068,-3.05015 -1.23094,-3.17448 -6e-5,-0.0363 0.59532,-0.0656 1.32292,-0.0656 z m 4.27519,0 -0.185,0.8599 c -0.24704,1.14663 -1.06162,2.72075 -1.25005,2.41587 -0.14399,-0.23298 -1.25235,-3.07298 -1.25264,-3.20962 -5e-5,-0.0363 0.60442,-0.0656 1.34359,-0.0656 z m -7.6109,5.2e-4 c 1.08225,0 1.21904,0.0659 1.21904,0.58653 0,0.73795 -0.7958,2.85305 -1.07332,2.85305 -0.11405,0 -0.41285,-0.62508 -0.66404,-1.38906 -0.25117,-0.76399 -0.51167,-1.53788 -0.57877,-1.71979 -0.0865,-0.23433 0.23322,-0.33073 1.09709,-0.33073 z m 28.47113,0.8661 c 0.0728,0.0405 0.5788,0.30096 1.12448,0.57877 0.5457,0.27782 0.99218,0.64594 0.99218,0.81856 0,0.17261 -0.46456,0.83559 -1.03249,1.47277 l -1.03301,1.15859 -0.0915,-2.05104 c -0.0505,-1.12816 -0.0325,-2.01815 0.0403,-1.97765 z m -22.18108,13.68598 c 0.29903,0 0.53919,1.11111 0.43822,2.02623 -0.0821,0.74398 -0.12176,0.76583 -0.95395,0.52504 -0.4776,-0.1382 -0.83131,-0.32258 -0.78651,-0.40928 0.0448,-0.0868 0.30871,-0.60409 0.58652,-1.1498 0.27782,-0.5457 0.59991,-0.99219 0.71572,-0.99219 z m 2.51716,1.05627 c 0.23839,0.0217 0.3412,0.5221 0.3452,1.52342 0.004,1.19912 -0.0381,1.23284 -1.0449,0.83095 -0.92051,-0.36745 -0.91789,-0.33794 -0.11834,-1.54615 0.36552,-0.55232 0.63264,-0.82512 0.81804,-0.80822 z m 2.42259,0.67437 c 0.0824,-0.013 0.14066,0.0666 0.19896,0.2186 0.28726,0.7487 0.27196,2.35234 -0.0233,2.44274 -0.14553,0.0446 -0.57847,-0.0623 -0.9617,-0.23719 l -0.6966,-0.31833 0.74776,-1.18597 c 0.39156,-0.62071 0.59742,-0.89815 0.73484,-0.91985 z m 2.33939,1.1343 c 0.0896,-0.003 0.17304,0.0807 0.28371,0.22996 0.26958,0.36285 0.49842,2.48762 0.26458,2.45102 -0.0364,-0.006 -0.45875,-0.18075 -0.93844,-0.38913 l -0.8723,-0.37879 0.60771,-1.06453 c 0.33895,-0.59386 0.50547,-0.84253 0.65474,-0.84853 z m 2.66444,0.53279 0.29817,0.85421 c 0.39852,1.14324 0.38125,2.36696 -0.0331,2.34456 -0.1819,-0.01 -0.59862,-0.14698 -0.92604,-0.30489 -0.74012,-0.35697 -0.73878,-0.42863 0.0331,-1.78749 z m 2.50889,1.89704 c 0.29644,-0.005 0.51433,1.1298 0.42013,2.18643 -0.0803,0.90001 -0.11112,0.92797 -0.6134,0.5519 -0.29102,-0.21793 -0.69075,-0.48934 -0.88832,-0.60306 -0.28752,-0.16553 -0.23476,-0.39895 0.26459,-1.16944 0.34308,-0.52936 0.71064,-0.96383 0.817,-0.96583 z m 2.47685,1.97869 c 0.015,-0.002 0.029,5.5e-4 0.0419,0.006 0.0618,0.0247 0.10226,0.12536 0.14986,0.29301 0.37307,1.31343 0.46206,2.23397 0.2527,2.60811 -0.19511,0.34865 -0.33828,0.29801 -0.94465,-0.33486 -0.86294,-0.9007 -0.86807,-1.0368 -0.0729,-2.00918 0.30631,-0.37454 0.46837,-0.55178 0.57309,-0.56276 z m 2.6355,2.79053 c 0.27072,0.0258 0.38292,0.45034 0.38292,1.29707 0,0.71902 -0.101,1.37023 -0.22427,1.44643 -0.12325,0.0762 -0.56124,-0.2145 -0.97359,-0.64492 l -0.74982,-0.78238 0.6227,-0.66301 c 0.42471,-0.45207 0.73148,-0.67329 0.94206,-0.65319 z"
       style="opacity:1;fill:url(#radialGradient4640);fill-opacity:1;stroke-width:0.26310727" />
  </g>
</svg>
